<?xml version="1.0" encoding="UTF-8" standalone="no"?>
<!-- Created with Inkscape (http://www.inkscape.org/) -->

<svg
   xmlns:dc="http://purl.org/dc/elements/1.1/"
   xmlns:cc="http://creativecommons.org/ns#"
   xmlns:rdf="http://www.w3.org/1999/02/22-rdf-syntax-ns#"
   xmlns:svg="http://www.w3.org/2000/svg"
   xmlns="http://www.w3.org/2000/svg"
   xmlns:sodipodi="http://sodipodi.sourceforge.net/DTD/sodipodi-0.dtd"
   xmlns:inkscape="http://www.inkscape.org/namespaces/inkscape"
   width="210mm"
   height="297mm"
   viewBox="0 0 744.09448819 1052.3622047"
   id="svg2"
   version="1.1"
   inkscape:version="0.91 r13725"
   sodipodi:docname="topcorn.svg">
  <defs
     id="defs4" />
  <sodipodi:namedview
     id="base"
     pagecolor="#ffffff"
     bordercolor="#666666"
     borderopacity="1.0"
     inkscape:pageopacity="0.0"
     inkscape:pageshadow="2"
     inkscape:zoom="0.49497475"
     inkscape:cx="368.93293"
     inkscape:cy="496.10012"
     inkscape:document-units="px"
     inkscape:current-layer="layer1"
     showgrid="false"
     inkscape:window-width="797"
     inkscape:window-height="826"
     inkscape:window-x="31"
     inkscape:window-y="350"
     inkscape:window-maximized="0" />
  <metadata
     id="metadata7">
    <rdf:RDF>
      <cc:Work
         rdf:about="">
        <dc:format>image/svg+xml</dc:format>
        <dc:type
           rdf:resource="http://purl.org/dc/dcmitype/StillImage" />
        <dc:title></dc:title>
      </cc:Work>
    </rdf:RDF>
  </metadata>
  <g
     inkscape:label="Layer 1"
     inkscape:groupmode="layer"
     id="layer1">
    <path
       style="fill:#ffeeaa;fill-rule:evenodd;stroke:#000000;stroke-width:8;stroke-linecap:butt;stroke-linejoin:miter;stroke-miterlimit:4;stroke-dasharray:none;stroke-opacity:1"
       d="m 514.37464,54.89662 c 0,0 22.48169,-59.1494004 46.05769,7.3619 23.5761,66.5114 -45.78087,16.9642 -45.78087,16.9642 0,0 63.46941,18.7412 24.15552,58.451 -39.31388,39.7098 -58.4381,-4.2009 -58.4381,-4.2009 0,0 -14.56605,61.744 -25.48501,16.3977 -10.91886,-45.3463 21.03313,-38.9984 21.03313,-38.9984 0,0 -48.92904,-23.7725 -25.73605,-64.6411 23.19308,-40.8686004 62.61316,2.4754 62.61316,2.4754"
       id="path4214-9"
       inkscape:connector-curvature="0" />
    <path
       style="fill:#ffeeaa;fill-rule:evenodd;stroke:#000000;stroke-width:8;stroke-linecap:butt;stroke-linejoin:miter;stroke-miterlimit:4;stroke-dasharray:none;stroke-opacity:1"
       d="m 633.40333,106.30192 c 0,0 62.80086,7.75459 3.81393,46.48618 -58.98692,38.73157 -27.37483,-40.42639 -27.37483,-40.42639 0,0 -3.09325,66.10616 -51.02029,37.37553 -47.92702,-28.73063 -9.83131,-57.758097 -9.83131,-57.758097 0,0 -63.43647,0.55107 -21.99307,-20.84884 41.44342,-21.39984 42.88429,11.14476 42.88429,11.14476 0,0 11.4413,-53.181574 56.65625,-40.384237 45.21495,12.797399 12.50099,61.402394 12.50099,61.402394"
       id="path4214-60"
       inkscape:connector-curvature="0" />
    <path
       style="fill:#ffeeaa;fill-rule:evenodd;stroke:#000000;stroke-width:8;stroke-linecap:butt;stroke-linejoin:miter;stroke-miterlimit:4;stroke-dasharray:none;stroke-opacity:1"
       d="m 359.30843,119.3275 c 0,0 -42.53976,46.8449 -40.18312,-23.681897 2.35663,-70.52688 48.81394,0.9366 48.81394,0.9366 0,0 -52.23301,-40.6363 -1.12796,-63.23549 51.10506,-22.59918 52.86238,25.26299 52.86238,25.26299 0,0 36.11945,-52.1524302 29.71437,-5.9519 -6.40508,46.2005 -33.82838,28.6166 -33.82838,28.6166 0,0 36.85973,40.006797 0.33737,69.575097 -36.52235,29.5683 -57.37918,-25.1824 -57.37918,-25.1824"
       id="path4214-6"
       inkscape:connector-curvature="0" />
    <path
       style="fill:#ffeeaa;fill-rule:evenodd;stroke:#000000;stroke-width:8;stroke-linecap:butt;stroke-linejoin:miter;stroke-miterlimit:4;stroke-dasharray:none;stroke-opacity:1"
       d="m 296.06845,61.225364 c 0,0 -60.60915,-18.18274 4.04062,-46.46702 64.64976,-28.28427 20.20305,44.44672 20.20305,44.44672 0,0 14.14213,-64.6497698 56.56854,-28.28427 42.4264,36.36549 0,58.58884 0,58.58884 0,0 62.62946,10.1015 18.18274,24.243696 -44.44671,14.14212 -40.4061,-18.182796 -40.4061,-18.182796 0,0 -20.20305,50.507616 -62.62946,30.304586 -42.42641,-20.20309 -2.0203,-62.629446 -2.0203,-62.629446"
       id="path4214-3"
       inkscape:connector-curvature="0" />
    <path
       style="fill:#ffeeaa;fill-rule:evenodd;stroke:#000000;stroke-width:8;stroke-linecap:butt;stroke-linejoin:miter;stroke-miterlimit:4;stroke-dasharray:none;stroke-opacity:1"
       d="m 335.61055,127.7082 c 0,0 54.65764,31.88453 -14.82119,44.22491 -69.47882,12.34037 -9.2205,-47.94431 -9.2205,-47.94431 0,0 -28.90376,59.53289 -61.6228,14.23484 -32.71904,-45.298048 13.73486,-56.956178 13.73486,-56.956178 0,0 -58.51612,-24.50211 -11.99264,-27.83065 46.52344,-3.32848 35.01756,27.14843 35.01756,27.14843 0,0 31.48046,-44.36399 67.98844,-14.77801 36.50796,29.58604 -12.7181,61.357798 -12.7181,61.357798"
       id="path4214-0"
       inkscape:connector-curvature="0" />
    <path
       style="fill:#ffeeaa;fill-rule:evenodd;stroke:#000000;stroke-width:8;stroke-linecap:butt;stroke-linejoin:miter;stroke-miterlimit:4;stroke-dasharray:none;stroke-opacity:1"
       d="m 228.39088,54.204323 c 0,0 18.22962,-60.5950903 46.46387,4.07651 28.23434,64.671587 -44.4623,20.1687 -44.4623,20.1687 0,0 64.63885,14.19208 28.24059,56.590387 -36.39827,42.39826 -58.58879,-0.0453 -58.58879,-0.0453 0,0 -10.14988,62.62163 -24.25773,18.16401 -14.10786,-44.45764 18.21401,-40.39205 18.21401,-40.39205 0,0 -50.49213,-20.242067 -30.2562,-62.652847 20.23587,-42.4107903 62.63093,-1.97192 62.63093,-1.97192"
       id="path4214-5"
       inkscape:connector-curvature="0" />
    <path
       style="fill:#ffeeaa;fill-rule:evenodd;stroke:#000000;stroke-width:8;stroke-linecap:butt;stroke-linejoin:miter;stroke-miterlimit:4;stroke-dasharray:none;stroke-opacity:1"
       d="m 179.15698,64.201685 c 0,0 52.38699,-35.49204 33.46508,32.48998 -18.92191,67.982005 -47.2163,-12.42157 -47.2163,-12.42157 0,0 41.17691,51.807865 -13.81617,61.718015 -54.993075,9.91014 -45.41394,-37.01658 -45.41394,-37.01658 0,0 -47.399415,42.16379 -30.279905,-1.22325 17.11957,-43.386985 39.622705,-19.832025 39.622705,-19.832025 0,0 -26.385615,-47.57082 16.07947,-67.69245 42.46512,-20.12159977 49.82236,38.00345 49.82236,38.00345"
       id="path4214-1"
       inkscape:connector-curvature="0" />
    <path
       style="fill:#ffeeaa;fill-rule:evenodd;stroke:#000000;stroke-width:8;stroke-linecap:butt;stroke-linejoin:miter;stroke-miterlimit:4;stroke-dasharray:none;stroke-opacity:1"
       d="m 96.974645,112.92034 c 0,0 -60.609153,-18.182741 4.040615,-46.467021 64.64976,-28.28427 20.20305,44.446721 20.20305,44.446721 0,0 14.14213,-64.649771 56.56854,-28.284271 42.4264,36.365491 0,58.588841 0,58.588841 0,0 62.62946,10.1015 18.18274,24.2437 -44.44671,14.14212 -40.4061,-18.1828 -40.4061,-18.1828 0,0 -20.20305,50.50762 -62.629455,30.30459 C 50.507627,157.36701 90.91373,114.94065 90.91373,114.94065"
       id="path4214"
       inkscape:connector-curvature="0" />
    <path
       style="fill:none;fill-rule:evenodd;stroke:#000000;stroke-width:8;stroke-linecap:butt;stroke-linejoin:miter;stroke-opacity:1;stroke-miterlimit:4;stroke-dasharray:none"
       d="M 60.609153,155.34674 171.72593,818.00681 598.01031,828.10834 670.74129,74.534541 c 0,0 -16.16244,38.385799 -56.56854,38.385799 -40.4061,0 -60.60916,-44.446714 -62.62946,-38.385799 -2.02031,6.060916 -30.30458,56.568539 -64.64976,38.385799 -34.34519,-18.182748 -46.46702,-40.406104 -46.46702,-40.406104 0,0 -24.24366,52.527934 -54.54824,42.426404 -30.30457,-10.10152 -48.48732,-40.406099 -48.48732,-40.406099 0,0 -14.14214,52.527929 -42.42641,40.406099 -28.28427,-12.12183 -44.44671,-36.365488 -44.44671,-36.365488 0,0 -26.26397,68.690368 -54.54824,50.507628 -28.28427,-18.18275 -48.48732,-42.426408 -48.48732,-42.426408 0,0 4.04061,96.974648 -36.36549,68.690368 C 70.710678,127.06247 48.487322,100.79851 48.487322,100.79851 Z"
       id="path3336"
       inkscape:connector-curvature="0" />
    <path
       style="fill:none;fill-rule:evenodd;stroke:#000000;stroke-width:8;stroke-linecap:butt;stroke-linejoin:miter;stroke-opacity:1;stroke-miterlimit:4;stroke-dasharray:none"
       d="M 125.25892,157.36705 234.35539,815.98651"
       id="path3338"
       inkscape:connector-curvature="0" />
    <path
       style="fill:none;fill-rule:evenodd;stroke:#000000;stroke-width:8;stroke-linecap:butt;stroke-linejoin:miter;stroke-opacity:1;stroke-miterlimit:4;stroke-dasharray:none"
       d="m 208.09142,129.08278 80.81221,688.92403"
       id="path3340"
       inkscape:connector-curvature="0" />
    <path
       style="fill:none;fill-rule:evenodd;stroke:#000000;stroke-width:8;stroke-linecap:butt;stroke-linejoin:miter;stroke-opacity:1;stroke-miterlimit:4;stroke-dasharray:none"
       d="m 305.06607,114.94064 30.30457,705.08648"
       id="path3342"
       inkscape:connector-curvature="0" />
    <path
       style="fill:none;fill-rule:evenodd;stroke:#000000;stroke-width:8;stroke-linecap:butt;stroke-linejoin:miter;stroke-opacity:1;stroke-miterlimit:4;stroke-dasharray:none"
       d="m 391.93919,116.96095 0,705.08647"
       id="path3344"
       inkscape:connector-curvature="0" />
    <path
       style="fill:none;fill-rule:evenodd;stroke:#000000;stroke-width:8;stroke-linecap:butt;stroke-linejoin:miter;stroke-opacity:1;stroke-miterlimit:4;stroke-dasharray:none"
       d="M 499.01536,116.96095 462.64987,822.04742"
       id="path3346"
       inkscape:connector-curvature="0" />
    <path
       style="fill:none;fill-rule:evenodd;stroke:#000000;stroke-width:8;stroke-linecap:butt;stroke-linejoin:miter;stroke-opacity:1;stroke-miterlimit:4;stroke-dasharray:none"
       d="M 608.11183,114.94064 533.36054,824.06773"
       id="path3348"
       inkscape:connector-curvature="0" />
    <path
       style="fill:#ff5555;stroke:#000000;stroke-width:8;stroke-linejoin:miter;stroke-miterlimit:4;stroke-dasharray:none"
       d="m 191.44912,813.3299 c -8.61155,-0.37871 -15.65736,-1.04716 -15.65736,-1.48545 0,-3.99881 -111.866612,-665.68629 -114.087706,-674.82519 -1.620332,-6.66701 -2.978442,-13.23607 -3.018023,-14.59791 -0.03958,-1.36185 9.701259,5.7088 21.646313,15.71253 11.945054,10.00374 25.979366,20.20935 31.187366,22.67913 6.62257,3.14061 9.80706,6.00884 10.59335,9.54128 1.54422,6.93748 106.20663,640.14359 106.20663,642.54862 0,1.86654 -3.27424,1.90446 -36.87057,0.42699 z"
       id="path4150"
       inkscape:connector-curvature="0" />
    <path
       style="fill:#ff5555;stroke:#000000;stroke-width:8;stroke-linejoin:miter;stroke-miterlimit:4;stroke-dasharray:none"
       d="m 295.75542,815.30576 c -1.37343,-0.90011 -17.88585,-134.67128 -41.95471,-339.8854 -37.52067,-319.90589 -39.49485,-338.54054 -36.121,-340.95231 9.53613,-6.81682 20.45836,-19.63013 26.71522,-31.3407 l 6.92486,-12.960808 13.91438,11.683018 c 7.6529,6.42565 18.84235,13.72554 24.86544,16.22197 10.75459,4.45753 10.95107,4.68869 10.95107,12.88432 0,4.58995 6.36396,155.96243 14.14213,336.38329 7.77818,180.42086 14.14214,332.86977 14.14214,338.77534 l 0,10.73744 -15.65737,-0.0309 c -8.61155,-0.0162 -16.67652,-0.69887 -17.92216,-1.51523 z"
       id="path4152"
       inkscape:connector-curvature="0" />
    <path
       style="fill:#ff5555;stroke:#000000;stroke-width:8;stroke-linejoin:miter;stroke-miterlimit:4;stroke-dasharray:none"
       d="m 396.00501,470.3062 c 0,-330.18799 0.18641,-348.62595 3.53554,-349.70217 11.27781,-3.62404 15.49933,-6.12326 23.03071,-13.63463 4.59698,-4.58477 10.61052,-11.728633 13.36341,-15.875257 l 5.00525,-7.539315 13.67575,12.661647 c 7.52166,6.963905 19.1817,15.356855 25.91119,18.650995 11.88272,5.81669 12.23854,6.22231 12.34314,14.07056 0.0592,4.44468 -7.61952,157.5978 -17.06391,340.3403 -9.44439,182.74249 -17.17162,336.15941 -17.17162,340.92648 l 0,8.66741 -31.31473,0 -31.31473,0 0,-348.56602 z"
       id="path4154"
       inkscape:connector-curvature="0" />
    <path
       style="fill:#ff5555;stroke:#000000;stroke-width:8;stroke-linejoin:miter;stroke-miterlimit:4;stroke-dasharray:none"
       d="m 543.99236,821.48704 c -2.50013,-0.48156 -4.54568,-2.26442 -4.54568,-3.96194 0,-1.69752 16.36447,-158.29662 36.36549,-347.99799 20.00102,-189.70138 36.36549,-346.43915 36.36549,-348.30617 0,-2.37631 1.7081,-3.39458 5.69423,-3.39458 10.09584,0 25.76966,-5.84717 35.41433,-13.21142 8.22872,-6.283098 9.39907,-6.684725 9.39907,-3.22548 0,2.17318 -15.45534,163.98975 -34.34519,359.59238 -18.88985,195.60263 -34.34519,357.05636 -34.34519,358.78606 0,2.6763 -3.38673,3.10394 -22.72843,2.86981 -12.50064,-0.15132 -24.77399,-0.66913 -27.27412,-1.15067 z"
       id="path4156"
       inkscape:connector-curvature="0" />
    <path
       style="fill:#e6e6e6;stroke:#000000;stroke-width:8;stroke-linejoin:miter;stroke-miterlimit:4;stroke-dasharray:none"
       d="m 185.58557,490.16923 -53.74449,-324.6624 5.76722,-5.76722 c 7.3237,-7.3237 11.91313,-22.22272 13.36411,-43.38496 l 1.13981,-16.623989 12.04953,11.155739 c 14.45163,13.37966 31.44345,25.1227 36.35178,25.1227 1.95937,0 3.5625,0.59408 3.5625,1.32017 0,0.72609 17.72818,152.3545 39.39595,336.95204 21.66777,184.59752 39.39595,336.73851 39.39595,338.09109 0,1.77993 -6.01302,2.45921 -21.76894,2.45921 l -21.76894,0 -53.74448,-324.66238 z"
       id="path4158"
       inkscape:connector-curvature="0" />
    <path
       style="fill:#e6e6e6;stroke:#000000;stroke-width:8;stroke-linejoin:miter;stroke-miterlimit:4;stroke-dasharray:none"
       d="m 359.13445,817.36609 -19.69798,-0.66048 0,-9.78115 c 0,-5.37963 -6.36396,-157.60889 -14.14213,-338.28724 -7.77818,-180.67835 -14.10712,-332.84281 -14.06432,-338.14325 0.0696,-8.61742 0.76435,-10.06891 6.56599,-13.71751 5.462,-3.43501 17.65218,-20.33435 20.22812,-28.042411 0.40849,-1.222332 5.66634,2.597353 11.68413,8.488187 11.58937,11.344894 23.84689,19.456164 32.79571,21.702174 l 5.41982,1.36029 0,349.29376 0,349.29376 -4.54568,-0.42283 c -2.50013,-0.23255 -13.40978,-0.72003 -24.24366,-1.0833 z"
       id="path4160"
       inkscape:connector-curvature="0" />
    <path
       style="fill:#ffffff;stroke:#000000;stroke-width:8;stroke-linejoin:miter;stroke-miterlimit:4;stroke-dasharray:none"
       d="m 468.736,810.93618 c 0,-5.47597 7.72495,-159.34746 17.16655,-341.93663 9.4416,-182.58916 17.16927,-335.28838 17.17259,-339.3316 0.005,-6.72587 0.57729,-7.45847 6.72041,-8.61092 10.77262,-2.02096 24.55925,-12.09269 33.92536,-24.783943 4.7822,-6.47997 8.85342,-12.055164 9.04716,-12.38932 0.19375,-0.334155 5.30668,4.346855 11.36207,10.402246 10.54762,10.547627 28.31575,21.520037 34.84837,21.520037 1.78763,0 3.09762,1.77208 3.09762,4.19025 0,2.30463 -16.36447,159.26505 -36.36549,348.80093 -20.00102,189.53589 -36.36549,346.29474 -36.36549,348.35301 0,3.47652 -2.1521,3.74229 -30.30458,3.74229 l -30.30457,0 0,-9.95635 z"
       id="path4162"
       inkscape:connector-curvature="0" />
    <path
       style="fill:#ffffff;stroke:#000000;stroke-width:8.92140484;stroke-linejoin:miter;stroke-miterlimit:4;stroke-dasharray:none"
       id="path4164"
       sodipodi:type="arc"
       sodipodi:cx="290.92395"
       sodipodi:cy="403.84427"
       sodipodi:rx="72.270264"
       sodipodi:ry="112.67636"
       sodipodi:start="0"
       sodipodi:end="6.2574124"
       d="M 363.19421,403.84427 A 72.270264,112.67636 0 0 1 291.3896,516.51829 72.270264,112.67636 0 0 1 218.65969,405.29623 72.270264,112.67636 0 0 1 289.52708,291.18896 72.270264,112.67636 0 0 1 363.17021,400.94059"
       sodipodi:open="true" />
    <path
       style="fill:#ffffff;stroke:#000000;stroke-width:8.92140484;stroke-linejoin:miter;stroke-miterlimit:4;stroke-dasharray:none"
       id="path4164-7"
       sodipodi:type="arc"
       sodipodi:cx="446.48749"
       sodipodi:cy="389.7023"
       sodipodi:rx="72.270264"
       sodipodi:ry="112.67636"
       sodipodi:start="0"
       sodipodi:end="6.2574124"
       d="M 518.75775,389.7023 A 72.270264,112.67636 0 0 1 446.95314,502.37632 72.270264,112.67636 0 0 1 374.22322,391.15426 72.270264,112.67636 0 0 1 445.09061,277.04699 72.270264,112.67636 0 0 1 518.73375,386.79863"
       sodipodi:open="true" />
    <path
       style="fill:#000000;stroke:#000000;stroke-width:8;stroke-linejoin:miter;stroke-miterlimit:4;stroke-dasharray:none"
       id="path4181"
       sodipodi:type="arc"
       sodipodi:cx="292.94424"
       sodipodi:cy="406.87473"
       sodipodi:rx="38.385796"
       sodipodi:ry="59.598999"
       sodipodi:start="0"
       sodipodi:end="6.049455"
       d="m 331.33004,406.87473 a 38.385796,59.598999 0 0 1 -36.14409,59.49728 38.385796,59.598999 0 0 1 -40.36567,-52.54808 38.385796,59.598999 0 0 1 31.42943,-65.63483 38.385796,59.598999 0 0 1 44.03659,44.88202 l -37.34206,13.80361 z" />
    <path
       style="fill:#000000;stroke:#000000;stroke-width:8;stroke-linejoin:miter;stroke-miterlimit:4;stroke-dasharray:none"
       id="path4181-3"
       sodipodi:type="arc"
       sodipodi:cx="448.51019"
       sodipodi:cy="391.715"
       sodipodi:rx="38.385796"
       sodipodi:ry="59.598999"
       sodipodi:start="0"
       sodipodi:end="6.049455"
       d="m 486.89599,391.715 a 38.385796,59.598999 0 0 1 -36.14409,59.49728 38.385796,59.598999 0 0 1 -40.36567,-52.54808 38.385796,59.598999 0 0 1 31.42943,-65.63483 38.385796,59.598999 0 0 1 44.03659,44.88202 L 448.51019,391.715 Z" />
    <path
       style="fill:#ffffff;fill-rule:evenodd;stroke:#000000;stroke-width:8;stroke-linecap:butt;stroke-linejoin:miter;stroke-miterlimit:4;stroke-dasharray:none;stroke-opacity:1"
       d="m 239.62389,548.61413 272.583,12.95743 c 0,0 -25.27785,120.68607 -133.78025,107.80177 C 269.92424,656.489 239.62389,548.61413 239.62389,548.61413 Z"
       id="path4206"
       inkscape:connector-curvature="0" />
    <path
       style="fill:none;fill-rule:evenodd;stroke:#000000;stroke-width:8;stroke-linecap:butt;stroke-linejoin:miter;stroke-opacity:1;stroke-miterlimit:4;stroke-dasharray:none"
       d="m 296.98485,630.11844 c 0,0 92.93403,-16.16244 119.198,-2.0203 26.26396,14.14213 36.36549,26.26396 36.36549,26.26396"
       id="path4208"
       inkscape:connector-curvature="0" />
    <path
       style="fill:#000000;stroke:#000000;stroke-width:16.16244125;stroke-linejoin:miter;stroke-miterlimit:4;stroke-dasharray:none"
       d="m 441.50682,638.17262 c -26.41166,-19.75511 -41.9276,-23.19329 -88.45118,-19.59996 -16.56044,1.27908 -36.5793,3.394 -44.48636,4.69982 l -14.37647,2.37422 -11.51883,-12.71967 c -11.57869,-12.78577 -22.74293,-30.13171 -31.34913,-48.70731 -4.15128,-8.96012 -4.27624,-10.00706 -1.19393,-10.00364 11.96408,0.0133 253.73721,12.23152 254.36003,12.85433 0.42322,0.42322 -1.53925,6.90319 -4.36101,14.39994 -8.50077,22.58445 -23.55138,45.01785 -39.73671,59.22875 l -7.13412,6.26385 -11.75229,-8.79033 z"
       id="path4210"
       inkscape:connector-curvature="0" />
    <path
       style="fill:#ffaaaa;stroke:#000000;stroke-width:16.16244125;stroke-linejoin:miter;stroke-miterlimit:4;stroke-dasharray:none"
       d="m 367.72074,662.39342 c -21.1219,-4.52056 -45.9824,-15.16224 -58.34446,-24.97469 l -4.80637,-3.81508 22.98912,-2.71958 c 25.75863,-3.04721 65.60419,-3.74974 76.86532,-1.35523 4.07505,0.8665 14.48914,6.1973 23.14242,11.84622 14.77441,9.64485 15.49468,10.44521 11.81882,13.13306 -12.03377,8.79931 -48.59691,12.82236 -71.66485,7.8853 z"
       id="path4212"
       inkscape:connector-curvature="0" />
    <path
       style="fill:none;fill-rule:evenodd;stroke:#000000;stroke-width:10;stroke-linecap:butt;stroke-linejoin:miter;stroke-opacity:1;stroke-miterlimit:4;stroke-dasharray:none"
       d="m 200.0102,813.9662 c 0,0 -34.34518,54.54824 -36.36549,127.27922 -2.0203,72.73098 10.10153,101.01528 10.10153,101.01528 l 0,-2.0203"
       id="path4267"
       inkscape:connector-curvature="0" />
    <path
       style="fill:none;fill-rule:evenodd;stroke:#000000;stroke-width:10;stroke-linecap:butt;stroke-linejoin:miter;stroke-opacity:1;stroke-miterlimit:4;stroke-dasharray:none"
       d="m 579.82756,822.04742 c 0,0 26.26397,34.34519 26.26397,101.01526 0,66.67007 -22.22336,117.17772 -22.22336,117.17772"
       id="path4269"
       inkscape:connector-curvature="0" />
    <path
       style="fill:none;fill-rule:evenodd;stroke:#000000;stroke-width:10;stroke-linecap:butt;stroke-linejoin:miter;stroke-opacity:1;stroke-miterlimit:4;stroke-dasharray:none"
       d="m 630.33519,454.3519 c 60.60915,143.44166 54.54824,234.35539 54.54824,234.35539 l -4.04061,-4.04061"
       id="path4271"
       inkscape:connector-curvature="0" />
    <path
       style="fill:none;fill-rule:evenodd;stroke:#000000;stroke-width:10;stroke-linecap:butt;stroke-linejoin:miter;stroke-miterlimit:4;stroke-dasharray:none;stroke-opacity:1"
       d="M 111.01525,454.31129 C 74.649763,541.18441 24.142136,393.70214 24.142136,393.70214 l -2.020305,0"
       id="path4273"
       inkscape:connector-curvature="0" />
  </g>
</svg>
